<?xml version="1.0" ?><!DOCTYPE svg  PUBLIC '-//W3C//DTD SVG 1.1//EN'  'http://www.w3.org/Graphics/SVG/1.1/DTD/svg11.dtd'><svg enable-background="new 0 0 64 64" height="64px" id="Layer_1" version="1.1" viewBox="0 0 64 64" width="64px" xml:space="preserve" xmlns="http://www.w3.org/2000/svg" xmlns:xlink="http://www.w3.org/1999/xlink"><g><path d="M31.999,0.999C14.879,0.999,1,14.878,1,32c0,17.12,13.879,31.001,30.999,31.001   C49.121,63.001,63,49.12,63,32C63,14.878,49.121,0.999,31.999,0.999z M25,41.543V22.458l18.225,9.575L25,41.543z" fill="#C8131A"/><g><polygon fill="#E01726" points="41.926,32.724 27,40.499 27.331,43.806 45.3,34.467   "/><path d="M3.271,34.435c0-17.122,13.879-31.001,30.999-31.001c8.363,0,15.948,3.317,21.524,8.701    C50.108,5.33,41.561,0.999,31.999,0.999C14.879,0.999,1,14.878,1,32c0,8.758,3.638,16.662,9.478,22.301    C5.981,48.921,3.271,41.994,3.271,34.435z" fill="#E01726"/></g><path d="M43.216,32.051l-1.846,0.962l-16.297,8.534l19.009,19.009c6.184-2.619,11.335-7.194,14.695-12.943   L43.216,32.051z" fill="#8E0919"/></g></svg>